<mxfile host="app.diagrams.net" modified="2023-11-17T20:08:20.303Z" agent="Mozilla/5.0 (Windows NT 10.0; Win64; x64) AppleWebKit/537.36 (KHTML, like Gecko) Chrome/119.0.0.0 Safari/537.36" etag="xbYVc1vwazrw6eTFul4p" version="22.1.3" type="device">
  <diagram id="C5RBs43oDa-KdzZeNtuy" name="Page-1">
    <mxGraphModel dx="472" dy="748" grid="1" gridSize="10" guides="1" tooltips="1" connect="1" arrows="1" fold="1" page="1" pageScale="1" pageWidth="827" pageHeight="1169" background="#ffffff" math="0" shadow="0">
      <root>
        <mxCell id="WIyWlLk6GJQsqaUBKTNV-0" />
        <mxCell id="WIyWlLk6GJQsqaUBKTNV-1" parent="WIyWlLk6GJQsqaUBKTNV-0" />
        <mxCell id="GKH92N6BGslbQWLBMuUn-0" value="START" style="ellipse;whiteSpace=wrap;html=1;labelBackgroundColor=none;fillColor=#182E3E;strokeColor=#FFFFFF;fontColor=#FFFFFF;" vertex="1" parent="WIyWlLk6GJQsqaUBKTNV-1">
          <mxGeometry x="965" y="30" width="120" height="80" as="geometry" />
        </mxCell>
        <mxCell id="GKH92N6BGslbQWLBMuUn-1" value="RAE -&amp;gt; BUS&lt;br&gt;BUS -&amp;gt; RAE" style="shape=parallelogram;perimeter=parallelogramPerimeter;whiteSpace=wrap;html=1;fixedSize=1;labelBackgroundColor=none;fillColor=#182E3E;strokeColor=#FFFFFF;fontColor=#FFFFFF;" vertex="1" parent="WIyWlLk6GJQsqaUBKTNV-1">
          <mxGeometry x="965" y="150" width="120" height="60" as="geometry" />
        </mxCell>
        <mxCell id="GKH92N6BGslbQWLBMuUn-2" value="RRC:&lt;br&gt;RBP = PAO[RAP]&amp;nbsp;" style="rounded=0;whiteSpace=wrap;html=1;labelBackgroundColor=none;fillColor=#182E3E;strokeColor=#FFFFFF;fontColor=#FFFFFF;" vertex="1" parent="WIyWlLk6GJQsqaUBKTNV-1">
          <mxGeometry x="940" y="270" width="170" height="60" as="geometry" />
        </mxCell>
        <mxCell id="GKH92N6BGslbQWLBMuUn-3" value="RBP -&amp;gt; BUS&lt;br&gt;BUS -&amp;gt; X&lt;br&gt;A -&amp;gt; LALU&lt;br&gt;X -&amp;gt; RALU" style="shape=parallelogram;perimeter=parallelogramPerimeter;whiteSpace=wrap;html=1;fixedSize=1;labelBackgroundColor=none;fillColor=#182E3E;strokeColor=#FFFFFF;fontColor=#FFFFFF;" vertex="1" parent="WIyWlLk6GJQsqaUBKTNV-1">
          <mxGeometry x="965" y="370" width="120" height="60" as="geometry" />
        </mxCell>
        <mxCell id="GKH92N6BGslbQWLBMuUn-4" value="ALU = LALU - RALU" style="rounded=0;whiteSpace=wrap;html=1;labelBackgroundColor=none;fillColor=#182E3E;strokeColor=#FFFFFF;fontColor=#FFFFFF;" vertex="1" parent="WIyWlLk6GJQsqaUBKTNV-1">
          <mxGeometry x="950" y="460" width="150" height="60" as="geometry" />
        </mxCell>
        <mxCell id="GKH92N6BGslbQWLBMuUn-5" value="ALU -&amp;gt; BUS&lt;br&gt;BUS -&amp;gt;A" style="shape=parallelogram;perimeter=parallelogramPerimeter;whiteSpace=wrap;html=1;fixedSize=1;labelBackgroundColor=none;fillColor=#182E3E;strokeColor=#FFFFFF;fontColor=#FFFFFF;" vertex="1" parent="WIyWlLk6GJQsqaUBKTNV-1">
          <mxGeometry x="965" y="560" width="120" height="60" as="geometry" />
        </mxCell>
        <mxCell id="GKH92N6BGslbQWLBMuUn-6" value="KONIEC" style="ellipse;whiteSpace=wrap;html=1;labelBackgroundColor=none;fillColor=#182E3E;strokeColor=#FFFFFF;fontColor=#FFFFFF;" vertex="1" parent="WIyWlLk6GJQsqaUBKTNV-1">
          <mxGeometry x="965" y="670" width="120" height="80" as="geometry" />
        </mxCell>
        <mxCell id="GKH92N6BGslbQWLBMuUn-8" value="" style="shape=flexArrow;endArrow=classic;html=1;rounded=0;labelBackgroundColor=none;strokeColor=#23445D;fontColor=default;" edge="1" parent="WIyWlLk6GJQsqaUBKTNV-1" source="GKH92N6BGslbQWLBMuUn-0" target="GKH92N6BGslbQWLBMuUn-1">
          <mxGeometry width="50" height="50" relative="1" as="geometry">
            <mxPoint x="1015" y="430" as="sourcePoint" />
            <mxPoint x="1065" y="380" as="targetPoint" />
          </mxGeometry>
        </mxCell>
        <mxCell id="GKH92N6BGslbQWLBMuUn-9" value="" style="shape=flexArrow;endArrow=classic;html=1;rounded=0;labelBackgroundColor=none;strokeColor=#23445D;fontColor=default;" edge="1" parent="WIyWlLk6GJQsqaUBKTNV-1" source="GKH92N6BGslbQWLBMuUn-1" target="GKH92N6BGslbQWLBMuUn-2">
          <mxGeometry width="50" height="50" relative="1" as="geometry">
            <mxPoint x="1015" y="430" as="sourcePoint" />
            <mxPoint x="1065" y="380" as="targetPoint" />
          </mxGeometry>
        </mxCell>
        <mxCell id="GKH92N6BGslbQWLBMuUn-10" value="" style="shape=flexArrow;endArrow=classic;html=1;rounded=0;labelBackgroundColor=none;strokeColor=#23445D;fontColor=default;" edge="1" parent="WIyWlLk6GJQsqaUBKTNV-1" source="GKH92N6BGslbQWLBMuUn-2" target="GKH92N6BGslbQWLBMuUn-3">
          <mxGeometry width="50" height="50" relative="1" as="geometry">
            <mxPoint x="1185" y="390" as="sourcePoint" />
            <mxPoint x="1235" y="340" as="targetPoint" />
          </mxGeometry>
        </mxCell>
        <mxCell id="GKH92N6BGslbQWLBMuUn-12" value="" style="shape=flexArrow;endArrow=classic;html=1;rounded=0;labelBackgroundColor=none;strokeColor=#23445D;fontColor=default;" edge="1" parent="WIyWlLk6GJQsqaUBKTNV-1" source="GKH92N6BGslbQWLBMuUn-3" target="GKH92N6BGslbQWLBMuUn-4">
          <mxGeometry width="50" height="50" relative="1" as="geometry">
            <mxPoint x="1015" y="430" as="sourcePoint" />
            <mxPoint x="1065" y="380" as="targetPoint" />
          </mxGeometry>
        </mxCell>
        <mxCell id="GKH92N6BGslbQWLBMuUn-13" value="" style="shape=flexArrow;endArrow=classic;html=1;rounded=0;entryX=0.5;entryY=0;entryDx=0;entryDy=0;labelBackgroundColor=none;strokeColor=#23445D;fontColor=default;" edge="1" parent="WIyWlLk6GJQsqaUBKTNV-1" source="GKH92N6BGslbQWLBMuUn-4" target="GKH92N6BGslbQWLBMuUn-5">
          <mxGeometry width="50" height="50" relative="1" as="geometry">
            <mxPoint x="1155" y="430" as="sourcePoint" />
            <mxPoint x="1205" y="380" as="targetPoint" />
          </mxGeometry>
        </mxCell>
        <mxCell id="GKH92N6BGslbQWLBMuUn-14" value="" style="shape=flexArrow;endArrow=classic;html=1;rounded=0;labelBackgroundColor=none;strokeColor=#23445D;fontColor=default;" edge="1" parent="WIyWlLk6GJQsqaUBKTNV-1" source="GKH92N6BGslbQWLBMuUn-5" target="GKH92N6BGslbQWLBMuUn-6">
          <mxGeometry width="50" height="50" relative="1" as="geometry">
            <mxPoint x="1015" y="430" as="sourcePoint" />
            <mxPoint x="1065" y="380" as="targetPoint" />
          </mxGeometry>
        </mxCell>
        <mxCell id="GKH92N6BGslbQWLBMuUn-15" value="START" style="ellipse;whiteSpace=wrap;html=1;strokeColor=#FFFFFF;fontColor=#FFFFFF;fillColor=#182E3E;" vertex="1" parent="WIyWlLk6GJQsqaUBKTNV-1">
          <mxGeometry x="1160" y="30" width="120" height="80" as="geometry" />
        </mxCell>
        <mxCell id="GKH92N6BGslbQWLBMuUn-16" value="A -&amp;gt; LALU" style="shape=parallelogram;perimeter=parallelogramPerimeter;whiteSpace=wrap;html=1;fixedSize=1;strokeColor=#FFFFFF;fontColor=#FFFFFF;fillColor=#182E3E;" vertex="1" parent="WIyWlLk6GJQsqaUBKTNV-1">
          <mxGeometry x="1160" y="170" width="120" height="60" as="geometry" />
        </mxCell>
        <mxCell id="GKH92N6BGslbQWLBMuUn-17" value="CMA:&lt;br&gt;ALU = (NOT LALU) + 1&lt;br&gt;ZNAK&amp;nbsp; = 1&amp;nbsp;" style="rounded=0;whiteSpace=wrap;html=1;strokeColor=#FFFFFF;fontColor=#FFFFFF;fillColor=#182E3E;" vertex="1" parent="WIyWlLk6GJQsqaUBKTNV-1">
          <mxGeometry x="1140" y="280" width="160" height="60" as="geometry" />
        </mxCell>
        <mxCell id="GKH92N6BGslbQWLBMuUn-18" value="ALU -&amp;gt; BUS&lt;br&gt;BUS -&amp;gt; A" style="shape=parallelogram;perimeter=parallelogramPerimeter;whiteSpace=wrap;html=1;fixedSize=1;strokeColor=#FFFFFF;fontColor=#FFFFFF;fillColor=#182E3E;" vertex="1" parent="WIyWlLk6GJQsqaUBKTNV-1">
          <mxGeometry x="1160" y="400" width="120" height="60" as="geometry" />
        </mxCell>
        <mxCell id="GKH92N6BGslbQWLBMuUn-19" value="KONIEC" style="ellipse;whiteSpace=wrap;html=1;strokeColor=#FFFFFF;fontColor=#FFFFFF;fillColor=#182E3E;" vertex="1" parent="WIyWlLk6GJQsqaUBKTNV-1">
          <mxGeometry x="1160" y="500" width="120" height="80" as="geometry" />
        </mxCell>
        <mxCell id="GKH92N6BGslbQWLBMuUn-20" value="" style="shape=flexArrow;endArrow=classic;html=1;rounded=0;strokeColor=#23445D;" edge="1" parent="WIyWlLk6GJQsqaUBKTNV-1" source="GKH92N6BGslbQWLBMuUn-15" target="GKH92N6BGslbQWLBMuUn-16">
          <mxGeometry width="50" height="50" relative="1" as="geometry">
            <mxPoint x="1050" y="430" as="sourcePoint" />
            <mxPoint x="1100" y="380" as="targetPoint" />
          </mxGeometry>
        </mxCell>
        <mxCell id="GKH92N6BGslbQWLBMuUn-21" value="" style="shape=flexArrow;endArrow=classic;html=1;rounded=0;strokeColor=#23445D;" edge="1" parent="WIyWlLk6GJQsqaUBKTNV-1" source="GKH92N6BGslbQWLBMuUn-16" target="GKH92N6BGslbQWLBMuUn-17">
          <mxGeometry width="50" height="50" relative="1" as="geometry">
            <mxPoint x="1050" y="430" as="sourcePoint" />
            <mxPoint x="1100" y="380" as="targetPoint" />
          </mxGeometry>
        </mxCell>
        <mxCell id="GKH92N6BGslbQWLBMuUn-22" value="" style="shape=flexArrow;endArrow=classic;html=1;rounded=0;strokeColor=#23445D;" edge="1" parent="WIyWlLk6GJQsqaUBKTNV-1" source="GKH92N6BGslbQWLBMuUn-17" target="GKH92N6BGslbQWLBMuUn-18">
          <mxGeometry width="50" height="50" relative="1" as="geometry">
            <mxPoint x="1050" y="430" as="sourcePoint" />
            <mxPoint x="1100" y="380" as="targetPoint" />
          </mxGeometry>
        </mxCell>
        <mxCell id="GKH92N6BGslbQWLBMuUn-23" value="" style="shape=flexArrow;endArrow=classic;html=1;rounded=0;strokeColor=#23445D;" edge="1" parent="WIyWlLk6GJQsqaUBKTNV-1" source="GKH92N6BGslbQWLBMuUn-18" target="GKH92N6BGslbQWLBMuUn-19">
          <mxGeometry width="50" height="50" relative="1" as="geometry">
            <mxPoint x="1050" y="430" as="sourcePoint" />
            <mxPoint x="1100" y="380" as="targetPoint" />
          </mxGeometry>
        </mxCell>
        <mxCell id="GKH92N6BGslbQWLBMuUn-24" value="START" style="ellipse;whiteSpace=wrap;html=1;strokeColor=#FFFFFF;fontColor=#FFFFFF;fillColor=#182E3E;" vertex="1" parent="WIyWlLk6GJQsqaUBKTNV-1">
          <mxGeometry x="780" y="40" width="120" height="80" as="geometry" />
        </mxCell>
        <mxCell id="GKH92N6BGslbQWLBMuUn-25" value="SUMA -&amp;gt; RAE&lt;br&gt;RAE -&amp;gt; BUS&lt;br&gt;BUS&amp;nbsp; -&amp;gt; A" style="shape=parallelogram;perimeter=parallelogramPerimeter;whiteSpace=wrap;html=1;fixedSize=1;strokeColor=#FFFFFF;fontColor=#FFFFFF;fillColor=#182E3E;" vertex="1" parent="WIyWlLk6GJQsqaUBKTNV-1">
          <mxGeometry x="780" y="160" width="120" height="60" as="geometry" />
        </mxCell>
        <mxCell id="GKH92N6BGslbQWLBMuUn-26" value="KONIEC" style="ellipse;whiteSpace=wrap;html=1;strokeColor=#FFFFFF;fontColor=#FFFFFF;fillColor=#182E3E;" vertex="1" parent="WIyWlLk6GJQsqaUBKTNV-1">
          <mxGeometry x="780" y="260" width="120" height="80" as="geometry" />
        </mxCell>
        <mxCell id="GKH92N6BGslbQWLBMuUn-27" value="" style="shape=flexArrow;endArrow=classic;html=1;rounded=0;strokeColor=#23445D;" edge="1" parent="WIyWlLk6GJQsqaUBKTNV-1" source="GKH92N6BGslbQWLBMuUn-24" target="GKH92N6BGslbQWLBMuUn-25">
          <mxGeometry width="50" height="50" relative="1" as="geometry">
            <mxPoint x="1010" y="420" as="sourcePoint" />
            <mxPoint x="1060" y="370" as="targetPoint" />
          </mxGeometry>
        </mxCell>
        <mxCell id="GKH92N6BGslbQWLBMuUn-28" value="" style="shape=flexArrow;endArrow=classic;html=1;rounded=0;strokeColor=#23445D;" edge="1" parent="WIyWlLk6GJQsqaUBKTNV-1" source="GKH92N6BGslbQWLBMuUn-25" target="GKH92N6BGslbQWLBMuUn-26">
          <mxGeometry width="50" height="50" relative="1" as="geometry">
            <mxPoint x="1010" y="420" as="sourcePoint" />
            <mxPoint x="1060" y="370" as="targetPoint" />
          </mxGeometry>
        </mxCell>
        <mxCell id="GKH92N6BGslbQWLBMuUn-29" value="START" style="ellipse;whiteSpace=wrap;html=1;strokeColor=#FFFFFF;fontColor=#FFFFFF;fillColor=#182E3E;" vertex="1" parent="WIyWlLk6GJQsqaUBKTNV-1">
          <mxGeometry x="540" y="40" width="120" height="80" as="geometry" />
        </mxCell>
        <mxCell id="GKH92N6BGslbQWLBMuUn-30" value="RAE -&amp;gt; BUS&lt;br&gt;BUS -&amp;gt;RAP" style="shape=parallelogram;perimeter=parallelogramPerimeter;whiteSpace=wrap;html=1;fixedSize=1;strokeColor=#FFFFFF;fontColor=#FFFFFF;fillColor=#182E3E;" vertex="1" parent="WIyWlLk6GJQsqaUBKTNV-1">
          <mxGeometry x="540" y="160" width="120" height="60" as="geometry" />
        </mxCell>
        <mxCell id="GKH92N6BGslbQWLBMuUn-31" value="RRC:&lt;br&gt;RBP = PAO[RAP]" style="rounded=0;whiteSpace=wrap;html=1;strokeColor=#FFFFFF;fontColor=#FFFFFF;fillColor=#182E3E;" vertex="1" parent="WIyWlLk6GJQsqaUBKTNV-1">
          <mxGeometry x="540" y="270" width="120" height="60" as="geometry" />
        </mxCell>
        <mxCell id="GKH92N6BGslbQWLBMuUn-32" value="RBP -&amp;gt; BUS&lt;br&gt;BUS -&amp;gt; X&lt;br&gt;RI -&amp;gt; LALU&lt;br&gt;X -&amp;gt; RALU" style="shape=parallelogram;perimeter=parallelogramPerimeter;whiteSpace=wrap;html=1;fixedSize=1;strokeColor=#FFFFFF;fontColor=#FFFFFF;fillColor=#182E3E;" vertex="1" parent="WIyWlLk6GJQsqaUBKTNV-1">
          <mxGeometry x="540" y="380" width="120" height="60" as="geometry" />
        </mxCell>
        <mxCell id="GKH92N6BGslbQWLBMuUn-33" value="ALU = LALU - RALU" style="rounded=0;whiteSpace=wrap;html=1;strokeColor=#FFFFFF;fontColor=#FFFFFF;fillColor=#182E3E;" vertex="1" parent="WIyWlLk6GJQsqaUBKTNV-1">
          <mxGeometry x="540" y="480" width="120" height="60" as="geometry" />
        </mxCell>
        <mxCell id="GKH92N6BGslbQWLBMuUn-34" value="ALU -&amp;gt; BUS&lt;br&gt;BUS&amp;nbsp; -&amp;gt; RI" style="shape=parallelogram;perimeter=parallelogramPerimeter;whiteSpace=wrap;html=1;fixedSize=1;strokeColor=#FFFFFF;fontColor=#FFFFFF;fillColor=#182E3E;" vertex="1" parent="WIyWlLk6GJQsqaUBKTNV-1">
          <mxGeometry x="540" y="585" width="120" height="60" as="geometry" />
        </mxCell>
        <mxCell id="GKH92N6BGslbQWLBMuUn-35" value="KONIEC" style="ellipse;whiteSpace=wrap;html=1;strokeColor=#FFFFFF;fontColor=#FFFFFF;fillColor=#182E3E;" vertex="1" parent="WIyWlLk6GJQsqaUBKTNV-1">
          <mxGeometry x="540" y="690" width="120" height="80" as="geometry" />
        </mxCell>
        <mxCell id="GKH92N6BGslbQWLBMuUn-36" value="" style="shape=flexArrow;endArrow=classic;html=1;rounded=0;strokeColor=#23445D;" edge="1" parent="WIyWlLk6GJQsqaUBKTNV-1" source="GKH92N6BGslbQWLBMuUn-29" target="GKH92N6BGslbQWLBMuUn-30">
          <mxGeometry width="50" height="50" relative="1" as="geometry">
            <mxPoint x="690" y="410" as="sourcePoint" />
            <mxPoint x="740" y="360" as="targetPoint" />
          </mxGeometry>
        </mxCell>
        <mxCell id="GKH92N6BGslbQWLBMuUn-37" value="" style="shape=flexArrow;endArrow=classic;html=1;rounded=0;strokeColor=#23445D;exitX=0.5;exitY=1;exitDx=0;exitDy=0;" edge="1" parent="WIyWlLk6GJQsqaUBKTNV-1" source="GKH92N6BGslbQWLBMuUn-30" target="GKH92N6BGslbQWLBMuUn-31">
          <mxGeometry width="50" height="50" relative="1" as="geometry">
            <mxPoint x="690" y="410" as="sourcePoint" />
            <mxPoint x="740" y="360" as="targetPoint" />
          </mxGeometry>
        </mxCell>
        <mxCell id="GKH92N6BGslbQWLBMuUn-38" value="" style="shape=flexArrow;endArrow=classic;html=1;rounded=0;strokeColor=#23445D;" edge="1" parent="WIyWlLk6GJQsqaUBKTNV-1" source="GKH92N6BGslbQWLBMuUn-31" target="GKH92N6BGslbQWLBMuUn-32">
          <mxGeometry width="50" height="50" relative="1" as="geometry">
            <mxPoint x="690" y="410" as="sourcePoint" />
            <mxPoint x="740" y="360" as="targetPoint" />
          </mxGeometry>
        </mxCell>
        <mxCell id="GKH92N6BGslbQWLBMuUn-39" value="" style="shape=flexArrow;endArrow=classic;html=1;rounded=0;strokeColor=#23445D;" edge="1" parent="WIyWlLk6GJQsqaUBKTNV-1" source="GKH92N6BGslbQWLBMuUn-32" target="GKH92N6BGslbQWLBMuUn-33">
          <mxGeometry width="50" height="50" relative="1" as="geometry">
            <mxPoint x="690" y="410" as="sourcePoint" />
            <mxPoint x="740" y="360" as="targetPoint" />
          </mxGeometry>
        </mxCell>
        <mxCell id="GKH92N6BGslbQWLBMuUn-40" value="" style="shape=flexArrow;endArrow=classic;html=1;rounded=0;strokeColor=#23445D;" edge="1" parent="WIyWlLk6GJQsqaUBKTNV-1" source="GKH92N6BGslbQWLBMuUn-33" target="GKH92N6BGslbQWLBMuUn-34">
          <mxGeometry width="50" height="50" relative="1" as="geometry">
            <mxPoint x="690" y="410" as="sourcePoint" />
            <mxPoint x="740" y="360" as="targetPoint" />
          </mxGeometry>
        </mxCell>
        <mxCell id="GKH92N6BGslbQWLBMuUn-41" value="" style="shape=flexArrow;endArrow=classic;html=1;rounded=0;strokeColor=#23445D;" edge="1" parent="WIyWlLk6GJQsqaUBKTNV-1" source="GKH92N6BGslbQWLBMuUn-34" target="GKH92N6BGslbQWLBMuUn-35">
          <mxGeometry width="50" height="50" relative="1" as="geometry">
            <mxPoint x="690" y="410" as="sourcePoint" />
            <mxPoint x="740" y="360" as="targetPoint" />
          </mxGeometry>
        </mxCell>
        <mxCell id="GKH92N6BGslbQWLBMuUn-42" value="START" style="ellipse;whiteSpace=wrap;html=1;strokeColor=#FFFFFF;fontColor=#FFFFFF;fillColor=#182E3E;" vertex="1" parent="WIyWlLk6GJQsqaUBKTNV-1">
          <mxGeometry x="220" y="40" width="120" height="80" as="geometry" />
        </mxCell>
        <mxCell id="GKH92N6BGslbQWLBMuUn-43" value="RAE -&amp;gt; BUS&lt;br&gt;BUS -&amp;gt; RAP&lt;br&gt;A -&amp;gt; BUS&lt;br&gt;BUS -&amp;gt; RBP" style="shape=parallelogram;perimeter=parallelogramPerimeter;whiteSpace=wrap;html=1;fixedSize=1;strokeColor=#FFFFFF;fontColor=#FFFFFF;fillColor=#182E3E;" vertex="1" parent="WIyWlLk6GJQsqaUBKTNV-1">
          <mxGeometry x="215" y="180" width="130" height="80" as="geometry" />
        </mxCell>
        <mxCell id="GKH92N6BGslbQWLBMuUn-44" value="CWC:&lt;br&gt;PAO[RAP] = RBP" style="rounded=0;whiteSpace=wrap;html=1;strokeColor=#FFFFFF;fontColor=#FFFFFF;fillColor=#182E3E;" vertex="1" parent="WIyWlLk6GJQsqaUBKTNV-1">
          <mxGeometry x="190" y="310" width="180" height="50" as="geometry" />
        </mxCell>
        <mxCell id="GKH92N6BGslbQWLBMuUn-45" value="KONIEC" style="ellipse;whiteSpace=wrap;html=1;strokeColor=#FFFFFF;fontColor=#FFFFFF;fillColor=#182E3E;" vertex="1" parent="WIyWlLk6GJQsqaUBKTNV-1">
          <mxGeometry x="220" y="410" width="120" height="80" as="geometry" />
        </mxCell>
        <mxCell id="GKH92N6BGslbQWLBMuUn-47" value="" style="shape=flexArrow;endArrow=classic;html=1;rounded=0;strokeColor=#23445D;" edge="1" parent="WIyWlLk6GJQsqaUBKTNV-1" source="GKH92N6BGslbQWLBMuUn-42" target="GKH92N6BGslbQWLBMuUn-43">
          <mxGeometry width="50" height="50" relative="1" as="geometry">
            <mxPoint x="230" y="440" as="sourcePoint" />
            <mxPoint x="280" y="390" as="targetPoint" />
          </mxGeometry>
        </mxCell>
        <mxCell id="GKH92N6BGslbQWLBMuUn-49" value="" style="shape=flexArrow;endArrow=classic;html=1;rounded=0;strokeColor=#23445D;" edge="1" parent="WIyWlLk6GJQsqaUBKTNV-1" source="GKH92N6BGslbQWLBMuUn-43" target="GKH92N6BGslbQWLBMuUn-44">
          <mxGeometry width="50" height="50" relative="1" as="geometry">
            <mxPoint x="230" y="440" as="sourcePoint" />
            <mxPoint x="280" y="390" as="targetPoint" />
          </mxGeometry>
        </mxCell>
        <mxCell id="GKH92N6BGslbQWLBMuUn-50" value="" style="shape=flexArrow;endArrow=classic;html=1;rounded=0;strokeColor=#23445D;" edge="1" parent="WIyWlLk6GJQsqaUBKTNV-1" source="GKH92N6BGslbQWLBMuUn-44" target="GKH92N6BGslbQWLBMuUn-45">
          <mxGeometry width="50" height="50" relative="1" as="geometry">
            <mxPoint x="230" y="440" as="sourcePoint" />
            <mxPoint x="280" y="390" as="targetPoint" />
          </mxGeometry>
        </mxCell>
      </root>
    </mxGraphModel>
  </diagram>
</mxfile>
